<?xml version="1.0" encoding="UTF-8" standalone="no"?>
<svg
   xmlns:dc="http://purl.org/dc/elements/1.1/"
   xmlns:cc="http://creativecommons.org/ns#"
   xmlns:rdf="http://www.w3.org/1999/02/22-rdf-syntax-ns#"
   xmlns:svg="http://www.w3.org/2000/svg"
   xmlns="http://www.w3.org/2000/svg"
   xmlns:sodipodi="http://sodipodi.sourceforge.net/DTD/sodipodi-0.dtd"
   xmlns:inkscape="http://www.inkscape.org/namespaces/inkscape"
   aria-hidden="true"
   focusable="false"
   data-prefix="fas"
   data-icon="microchip"
   class="svg-inline--fa fa-microchip fa-w-16"
   role="img"
   viewBox="0 0 512 512"
   version="1.1"
   id="svg22"
   sodipodi:docname="microchip-solid.svg"
   inkscape:version="1.0.1 (3bc2e813f5, 2020-09-07)">
  <metadata
     id="metadata28">
    <rdf:RDF>
      <cc:Work
         rdf:about="">
        <dc:format>image/svg+xml</dc:format>
        <dc:type
           rdf:resource="http://purl.org/dc/dcmitype/StillImage" />
      </cc:Work>
    </rdf:RDF>
  </metadata>
  <defs
     id="defs26" />
  <sodipodi:namedview
     pagecolor="#ffffff"
     bordercolor="#666666"
     borderopacity="1"
     objecttolerance="10"
     gridtolerance="10"
     guidetolerance="10"
     inkscape:pageopacity="0"
     inkscape:pageshadow="2"
     inkscape:window-width="1440"
     inkscape:window-height="837"
     id="namedview24"
     showgrid="false"
     inkscape:zoom="1.2265625"
     inkscape:cx="256"
     inkscape:cy="256"
     inkscape:window-x="-8"
     inkscape:window-y="-8"
     inkscape:window-maximized="1"
     inkscape:current-layer="svg22" />
  <path
     fill="currentColor"
     d="M416 48v416c0 26.51-21.49 48-48 48H144c-26.51 0-48-21.49-48-48V48c0-26.51 21.49-48 48-48h224c26.51 0 48 21.49 48 48zm96 58v12a6 6 0 0 1-6 6h-18v6a6 6 0 0 1-6 6h-42V88h42a6 6 0 0 1 6 6v6h18a6 6 0 0 1 6 6zm0 96v12a6 6 0 0 1-6 6h-18v6a6 6 0 0 1-6 6h-42v-48h42a6 6 0 0 1 6 6v6h18a6 6 0 0 1 6 6zm0 96v12a6 6 0 0 1-6 6h-18v6a6 6 0 0 1-6 6h-42v-48h42a6 6 0 0 1 6 6v6h18a6 6 0 0 1 6 6zm0 96v12a6 6 0 0 1-6 6h-18v6a6 6 0 0 1-6 6h-42v-48h42a6 6 0 0 1 6 6v6h18a6 6 0 0 1 6 6zM30 376h42v48H30a6 6 0 0 1-6-6v-6H6a6 6 0 0 1-6-6v-12a6 6 0 0 1 6-6h18v-6a6 6 0 0 1 6-6zm0-96h42v48H30a6 6 0 0 1-6-6v-6H6a6 6 0 0 1-6-6v-12a6 6 0 0 1 6-6h18v-6a6 6 0 0 1 6-6zm0-96h42v48H30a6 6 0 0 1-6-6v-6H6a6 6 0 0 1-6-6v-12a6 6 0 0 1 6-6h18v-6a6 6 0 0 1 6-6zm0-96h42v48H30a6 6 0 0 1-6-6v-6H6a6 6 0 0 1-6-6v-12a6 6 0 0 1 6-6h18v-6a6 6 0 0 1 6-6z"
     id="path20" />
  <path
     style="fill:#aa0000;stroke:none;stroke-width:0.815287"
     d="m 138.59873,511.17399 c -18.61422,-2.24181 -34.37678,-15.51111 -40.179027,-33.82367 l -1.808238,-5.70701 V 256 40.356688 l 1.808238,-5.707006 C 103.55907,18.429256 117.23687,5.5861529 133.70701,1.5158133 c 6.64183,-1.64142533 237.94415,-1.64142533 244.58598,0 16.54932,4.0899067 30.12324,16.8354667 35.2873,33.1338687 l 1.80825,5.707006 V 256 471.64331 l -1.80825,5.70701 c -4.99229,15.75626 -17.35393,27.79517 -33.69369,32.81405 -4.06154,1.24753 -14.48458,1.37819 -120.21781,1.50691 -63.67389,0.0775 -118.15541,-0.14626 -121.07006,-0.49729 z"
     id="path32" />
  <path
     style="fill:#aa0000;stroke:none;stroke-width:0.815287"
     d="m 26.459756,325.74407 c -1.595851,-1.59586 -2.001157,-2.83429 -2.001157,-6.11465 v -4.1135 H 14.357837 c -13.73196412,0 -13.95019369,-0.17609 -13.95019369,-11.25638 0,-11.54472 0.0315952,-11.57164 13.57858869,-11.57164 h 10.472367 v -4.34196 c 0,-3.48446 0.372654,-4.69205 1.886941,-6.11465 1.840048,-1.72864 2.42762,-1.77269 23.643312,-1.77269 h 21.756371 v 23.64331 23.64331 H 50.103069 28.460915 Z"
     id="path34" />
  <path
     style="fill:#aa0000;stroke:none;stroke-width:0.815287"
     d="m 27.976864,423.12807 c -2.458358,-0.9905 -3.518265,-3.30595 -3.518265,-7.68594 v -3.72238 h -9.337435 c -5.2879023,0 -10.2277928,-0.40568 -11.3904286,-0.93541 -2.81836184,-1.28413 -3.96341943,-5.32366 -3.59230022,-12.67289 0.27811652,-5.50751 0.54157012,-6.33404 2.57699912,-8.08484 2.1174041,-1.82132 2.9106581,-1.95018 12.0051887,-1.95018 h 9.737976 V 384 c 0,-2.98938 0.434819,-4.51125 1.630573,-5.70701 1.550051,-1.55005 2.717622,-1.63057 23.643312,-1.63057 h 22.012739 v 23.64331 23.64331 l -20.993631,-0.0517 c -11.546496,-0.0284 -21.795125,-0.3746 -22.774728,-0.76929 z"
     id="path36" />
  <path
     style="fill:#aa0000;stroke:none;stroke-width:0.815287"
     d="m 26.231288,229.65446 c -1.34957,-1.43655 -1.772689,-2.89604 -1.772689,-6.11465 V 219.3121 H 13.986232 c -13.54699348,0 -13.57858869,-0.0269 -13.57858869,-11.57164 0,-11.08029 0.21822957,-11.25638 13.95019369,-11.25638 h 10.100762 v -4.1135 c 0,-3.28036 0.405306,-4.51879 2.001157,-6.11464 l 2.001159,-2.00116 h 21.642154 21.642154 v 23.64331 23.64331 H 49.8746 c -21.806963,0 -21.875783,-0.005 -23.643312,-1.88694 z"
     id="path38" />
  <path
     style="fill:#aa0000;stroke:none;stroke-width:0.815287"
     d="m 26.089172,133.70701 c -1.188544,-1.18855 -1.630573,-2.71763 -1.630573,-5.64052 v -4.00994 L 14.28787,123.78624 c -12.9025914,-0.34292 -13.69519837,-0.9025 -14.15424257,-9.9929 -0.36654952,-7.25874 0.78866434,-11.29807 3.59710797,-12.57768 1.1626358,-0.52973 6.1025263,-0.93541 11.3904286,-0.93541 h 9.337435 v -3.986108 c 0,-2.708511 0.499183,-4.603009 1.55745,-5.910828 l 1.55745,-1.924715 22.085862,-0.241253 22.085862,-0.241253 v 23.680747 23.68074 H 49.732484 c -20.92569,0 -22.093261,-0.0805 -23.643312,-1.63057 z"
     id="path40" />
  <path
     style="fill:#aa0000;stroke:none;stroke-width:0.815287"
     d="M 440.25478,111.65684 V 87.976093 l 22.08586,0.241253 22.08586,0.241253 1.55745,1.924715 c 1.05827,1.307819 1.55745,3.202317 1.55745,5.910828 v 3.986108 h 9.33744 c 5.2879,0 10.22779,0.40568 11.39042,0.93541 2.80845,1.27961 3.96366,5.31894 3.59711,12.57768 -0.45904,9.0904 -1.25165,9.64998 -14.15424,9.9929 l -10.17073,0.27031 v 4.00994 c 0,2.92289 -0.44203,4.45197 -1.63057,5.64052 -1.55005,1.55005 -2.71762,1.63057 -23.64331,1.63057 h -22.01274 z"
     id="path42" />
  <path
     style="fill:#aa0000;stroke:none;stroke-width:0.815287"
     d="m 440.25478,207.89809 v -23.64331 h 21.64215 21.64216 l 2.00115,2.00116 c 1.59586,1.59585 2.00116,2.83428 2.00116,6.11464 v 4.1135 h 10.10076 c 13.73197,0 13.9502,0.17609 13.9502,11.25638 0,11.54472 -0.0316,11.57164 -13.57859,11.57164 H 487.5414 v 4.34196 c 0,3.48446 -0.37265,4.69205 -1.88694,6.11465 -1.84005,1.72864 -2.42762,1.77269 -23.64331,1.77269 h -21.75637 z"
     id="path44" />
  <path
     style="fill:#aa0000;stroke:none;stroke-width:0.815287"
     d="M 440.25478,304.10191 V 280.4586 h 21.87062 c 21.80696,0 21.87578,0.005 23.64331,1.88694 1.34957,1.43655 1.77269,2.89604 1.77269,6.11465 v 4.22771 h 10.47237 c 13.54699,0 13.57859,0.0269 13.57859,11.57164 0,11.08029 -0.21823,11.25638 -13.9502,11.25638 H 487.5414 v 4.1135 c 0,3.28036 -0.4053,4.51879 -2.00116,6.11465 l -2.00115,2.00115 h -21.64216 -21.64215 z"
     id="path46" />
  <path
     style="fill:#aa0000;stroke:none;stroke-width:0.815287"
     d="m 440.25478,400.34316 v -23.68074 h 22.01274 c 20.92569,0 22.09326,0.0805 23.64331,1.63057 1.19575,1.19576 1.63057,2.71763 1.63057,5.70701 v 4.07643 h 9.73798 c 9.09453,0 9.88778,0.12886 12.00519,1.95018 2.03542,1.7508 2.29888,2.57733 2.577,8.08484 0.37111,7.34923 -0.77394,11.38876 -3.59231,12.67289 -1.16263,0.52973 -6.10252,0.93541 -11.39042,0.93541 h -9.33744 v 3.98611 c 0,2.70851 -0.49918,4.60301 -1.55745,5.91083 l -1.55745,1.92471 -22.08586,0.24125 -22.08586,0.24126 z"
     id="path48" />
</svg>
